<?xml version="1.0" standalone="no"?>
<!DOCTYPE svg PUBLIC "-//W3C//DTD SVG 20010904//EN"
 "http://www.w3.org/TR/2001/REC-SVG-20010904/DTD/svg10.dtd">
<svg version="1.0" xmlns="http://www.w3.org/2000/svg"
 width="1000.000000pt" height="1000.000000pt" viewBox="0 0 1000.000000 1000.000000"
 preserveAspectRatio="xMidYMid meet">

<g transform="translate(0.000000,1000.000000) scale(0.100000,-0.100000)"
fill="#000000" stroke="none">
<path d="M1050 4921 c0 -484 3 -886 6 -895 3 -9 12 -16 20 -16 8 0 14 -4 14
-9 0 -5 10 -13 23 -17 12 -4 29 -15 37 -24 8 -9 25 -20 38 -24 12 -4 22 -12
22 -17 0 -5 9 -9 19 -9 10 0 21 -7 25 -15 3 -8 14 -15 25 -15 11 0 22 -9 26
-20 3 -11 15 -20 25 -20 10 0 20 -7 24 -15 3 -8 15 -15 26 -15 11 0 20 -4 20
-10 0 -5 7 -10 15 -10 8 0 15 -4 15 -9 0 -5 10 -13 23 -17 12 -4 29 -15 37
-24 8 -9 25 -20 38 -24 12 -4 22 -12 22 -17 0 -5 9 -9 19 -9 11 0 23 -9 26
-20 4 -11 15 -20 26 -20 11 0 22 -7 25 -15 4 -8 14 -15 24 -15 10 0 20 -7 24
-15 3 -8 13 -15 22 -15 9 0 24 -8 33 -19 9 -10 26 -21 39 -25 12 -4 22 -12 22
-17 0 -5 5 -9 11 -9 7 0 19 -8 28 -19 9 -10 26 -21 39 -25 12 -4 22 -12 22
-17 0 -5 7 -9 15 -9 8 0 15 -4 15 -9 0 -5 10 -13 23 -17 12 -4 29 -15 37 -24
8 -9 25 -20 38 -24 12 -4 22 -12 22 -17 0 -5 9 -9 19 -9 11 0 23 -9 26 -20 4
-11 15 -20 26 -20 11 0 22 -7 25 -15 4 -8 14 -15 24 -15 10 0 20 -7 24 -15 3
-8 15 -15 26 -15 11 0 20 -4 20 -10 0 -5 7 -10 15 -10 8 0 15 -4 15 -9 0 -5
10 -13 23 -17 12 -4 29 -15 38 -25 9 -11 20 -19 23 -19 4 0 14 -7 22 -15 9 -8
24 -15 34 -15 10 0 22 -9 25 -20 4 -11 15 -20 26 -20 11 0 22 -7 25 -15 4 -8
14 -15 24 -15 10 0 20 -7 24 -15 3 -8 14 -15 23 -15 10 0 25 -9 33 -20 8 -11
20 -20 27 -20 7 0 13 -4 13 -9 0 -5 10 -13 23 -17 12 -4 29 -15 37 -24 8 -9
25 -20 38 -24 12 -4 22 -12 22 -17 0 -5 7 -9 15 -9 8 0 15 -4 15 -9 0 -5 10
-13 23 -17 12 -4 29 -15 38 -25 9 -11 21 -19 28 -19 6 0 11 -4 11 -9 0 -5 10
-13 23 -17 12 -4 29 -15 38 -25 9 -11 24 -19 33 -19 9 0 19 -7 22 -15 4 -8 14
-15 24 -15 10 0 20 -7 24 -15 3 -8 15 -15 26 -15 11 0 20 -4 20 -10 0 -5 5
-10 11 -10 7 0 19 -8 28 -19 9 -10 26 -21 39 -25 12 -4 22 -12 22 -17 0 -5 7
-9 15 -9 8 0 15 -4 15 -9 0 -5 10 -13 23 -17 12 -4 29 -15 38 -25 9 -11 24
-19 33 -19 9 0 19 -7 22 -15 4 -8 14 -15 24 -15 10 0 22 -9 25 -20 4 -11 15
-20 26 -20 11 0 22 -7 25 -15 4 -8 15 -15 25 -15 10 0 19 -4 19 -9 0 -5 10
-13 23 -17 12 -4 29 -15 37 -24 8 -9 25 -20 38 -24 12 -4 22 -12 22 -17 0 -5
5 -9 11 -9 7 0 19 -8 28 -19 9 -10 26 -21 39 -25 12 -4 22 -12 22 -17 0 -5 7
-9 15 -9 8 0 15 -4 15 -9 0 -5 10 -13 23 -17 12 -4 29 -15 38 -25 9 -11 24
-19 33 -19 9 0 19 -7 22 -15 4 -8 14 -15 24 -15 10 0 21 -8 25 -19 3 -11 19
-21 37 -25 17 -3 38 -14 47 -25 9 -10 26 -21 39 -25 12 -4 22 -12 22 -17 0 -5
7 -9 15 -9 8 0 15 -4 15 -9 0 -5 10 -13 23 -17 12 -4 29 -15 38 -25 9 -11 23
-19 32 -19 8 0 17 -7 21 -15 3 -8 14 -15 25 -15 11 0 22 -9 26 -20 4 -11 15
-20 26 -20 11 0 22 -7 25 -15 4 -8 15 -15 25 -15 10 0 19 -4 19 -9 0 -5 10
-13 23 -17 12 -4 29 -15 38 -25 9 -11 21 -19 28 -19 6 0 11 -4 11 -9 0 -5 10
-13 23 -17 12 -4 29 -15 37 -24 8 -9 25 -20 38 -24 12 -4 22 -12 22 -17 0 -5
7 -9 15 -9 8 0 15 -4 15 -9 0 -5 10 -13 23 -17 12 -4 29 -15 38 -25 9 -11 20
-19 23 -19 4 0 14 -7 22 -15 9 -8 24 -15 34 -15 10 0 21 -8 25 -19 3 -11 19
-21 37 -25 17 -3 38 -14 47 -25 9 -10 26 -21 38 -25 14 -4 26 -20 32 -39 6
-21 10 184 10 568 1 330 4 1312 8 2183 l6 1582 -1941 0 -1942 0 0 -879z"/>
</g>
</svg>
